# xmcd CD database file
#
# Track frame offsets:
#	150
#	15403
#	29382
#	43635
#	53885
#	64873
#	76197
#	94660
#	106348
#	117750
#	134314
#	147597
#	161064
#	175448
#	186703
#	199167
#	210528
#	225978
#	240622
#	254419
#
# Disc length: 3554 seconds
#
# Revision: 0
# Processed by: cddbd v1.4PL0 Copyright (c) Steve Scherf et al.
# Submitted via: CDex 1.50beta8
#
DISCID=190de014
DTITLE=Various Artist - Country Love Songs CD 1
DYEAR=1900
DGENRE=Country
TTITLE0=Bobby Bare - Lay Your Head Upon My Pillow
TTITLE1=Dave Dudley - Think I'll Send Him Some Roses
TTITLE2=Freddy Quinn - Look What Love Has Done
TTITLE3=Dave Dudley - Beatiful Love Song
TTITLE4=Bobby Bare - Hello Darlin'
TTITLE5=Barbara Perry - I'll Hld You Closer Than Love
TTITLE6=Tom Stewart - Do You Think Of Me
TTITLE7=Bobby Bare - Please, Don't Tell Me How The Story Ends
TTITLE8=Buddy Meredith - A New Girl In Town
TTITLE9=Dave Dudley - When My Blue Moon Turns To Gold Again
TTITLE10=Freddy Quinn - Home Of The Range
TTITLE11=Linda Manning - If Only For A Moment
TTITLE12=Bobby Bare - Leaving On A Jet Plane
TTITLE13=Dave Dudley - I Wish You Were Here
TTITLE14=Bobby Bare - Come Sundown
TTITLE15=David Price - The Lonesome Truckdriver's Waltz
TTITLE16=Bobby Bare - Where Have All The Seasons Gone
TTITLE17=Tom Stewart - Long Short Story
TTITLE18=Billy Grammar - The Hour Of Separation
TTITLE19=Dave Dudley - How Come It Tool So Long To Say Goodbye
EXTD=
EXTT0=
EXTT1=
EXTT2=
EXTT3=
EXTT4=
EXTT5=
EXTT6=
EXTT7=
EXTT8=
EXTT9=
EXTT10=
EXTT11=
EXTT12=
EXTT13=
EXTT14=
EXTT15=
EXTT16=
EXTT17=
EXTT18=
EXTT19=
PLAYORDER=
